<svg xmlns="http://www.w3.org/2000/svg" width="812" height="812" viewBox="0 0 812 812">
    <g fill="none" fill-rule="evenodd">
      <path stroke="#65D5FF" stroke-dasharray="0 12" stroke-linecap="round" stroke-width="2" d="M405 810c223.675 0 405-181.325 405-405S628.675 0 405 0 0 181.325 0 405s181.325 405 405 405z" opacity=".08" transform="translate(-218 -702) translate(217 591) translate(1 111) translate(1 1)"/>
      <path stroke="#65D5FF" stroke-dasharray="0 12" stroke-linecap="round" stroke-width="2" d="M405 750c190.538 0 345-154.462 345-345S595.538 60 405 60 60 214.462 60 405s154.462 345 345 345z" opacity=".16" transform="translate(-218 -702) translate(217 591) translate(1 111) translate(1 1)"/>
      <path stroke="#65D5FF" stroke-dasharray="0 12" stroke-linecap="round" stroke-width="2" d="M405 690c157.401 0 285-127.599 285-285S562.401 120 405 120 120 247.599 120 405s127.599 285 285 285z" opacity=".35" transform="translate(-218 -702) translate(217 591) translate(1 111) translate(1 1)"/>
      <path stroke="#65D5FF" stroke-dasharray="0 12" stroke-linecap="round" stroke-width="2" d="M405 180c82.06 0 128.31 25.22 164.045 60.955C604.78 276.689 630 322.939 630 405c0 82.06-25.22 128.31-60.955 164.045C533.311 604.78 487.061 630 405 630c-82.06 0-128.31-25.22-164.045-60.955C205.22 533.311 180 487.061 180 405c0-82.06 25.22-128.31 60.955-164.045C276.689 205.22 322.939 180 405 180z" opacity=".5" transform="translate(-218 -702) translate(217 591) translate(1 111) translate(1 1)"/>
      <path stroke="#65D5FF" stroke-dasharray="0 12" stroke-linecap="round" stroke-width="2" d="M405 240c120.356 0 165 44.644 165 165s-44.644 165-165 165-165-44.644-165-165 44.644-165 165-165z" opacity=".8" transform="translate(-218 -702) translate(217 591) translate(1 111) translate(1 1)"/>
      <g>
          <path fill="#FAE100" d="M100 0c72.943 0 100 27.057 100 100s-27.057 100-100 100S0 172.943 0 100 27.057 0 100 0z" transform="translate(-218 -702) translate(217 591) translate(1 111) translate(1 1) translate(305 305)"/>
          <g fill="#0A162F">
              <path d="M76 25c0 13.807-11.193 25-25 25S26 38.807 26 25 37.193 0 51 0s25 11.193 25 25M101.998 98.392l.002-.044h-.003C101.869 74.944 76.865 58 51 58S.13 74.944.003 98.348H0l.002.044-.002.134h.009C.388 105.56 23.069 121 51 121c27.93 0 50.611-15.44 50.991-22.474H102l-.002-.134" transform="translate(-218 -702) translate(217 591) translate(1 111) translate(1 1) translate(305 305) translate(49 40)"/>
          </g>
      </g>
      <g>
          <path fill="#0A162F" stroke="#65D5FF" stroke-width="2" d="M149 1c9.315 0 17.868 3.182 24.576 8.493 6.827 5.404 11.744 13.014 13.604 21.718.057.267.111.534.164.8.27-.006.542-.009.814-.009 10.23 0 19.428 4.069 26.074 10.655C220.9 49.264 225 58.403 225 68.5c0 9.536-3.657 18.217-9.644 24.72-6.037 6.554-14.442 10.893-23.857 11.659-.742.081-1.466.121-2.199.121h0-98.6c-5.44 0-10.365-2.205-13.93-5.77C73.205 95.665 71 90.74 71 85.3h0V70.7c0-5.44 2.205-10.365 5.77-13.93C80.335 53.205 85.26 51 90.7 51h0l21.285.001C110.697 47.23 110 43.194 110 39c0-10.49 4.363-19.987 11.414-26.861C128.474 5.255 138.227 1 149 1z" transform="translate(-218 -702) translate(217 591) translate(1 111) translate(1 1) translate(67 538)"/>
          <path fill="#0A162F" stroke="#65D5FF" stroke-width="2" d="M91 16c13.515 0 25.825 5.205 35.07 13.79 9.302 8.634 15.502 20.686 16.713 34.298.027.308.052.616.074.923.307-.008.614-.012.922-.012 9.763 0 18.56 3.908 24.92 10.23C175.073 81.565 179 90.324 179 100c0 9.665-3.918 18.415-10.251 24.749C162.415 131.082 153.665 135 144 135h0-99.5c-12.012 0-22.887-4.869-30.76-12.74C5.87 114.386 1 103.511 1 91.5c0-11.662 4.59-22.252 12.06-30.063 7.504-7.846 17.916-12.888 29.505-13.395l.628-.024c.08-.192.163-.385.246-.576 4.098-9.434 10.813-17.386 19.205-22.933C70.8 19.119 80.54 16 91 16z" transform="translate(-218 -702) translate(217 591) translate(1 111) translate(1 1) translate(67 538)"/>
          <path stroke="#FAE100" stroke-width="6" d="M73 73L90 56 107 73" transform="translate(-218 -702) translate(217 591) translate(1 111) translate(1 1) translate(67 538)"/>
          <path fill="#FAE100" d="M87 56H93V88H87z" transform="translate(-218 -702) translate(217 591) translate(1 111) translate(1 1) translate(67 538)"/>
          <path fill="#0A68FF" d="M60 99H120V105H60z" transform="translate(-218 -702) translate(217 591) translate(1 111) translate(1 1) translate(67 538)"/>
      </g>
      <g transform="translate(-218 -702) translate(217 591) translate(1 111) translate(1 1) translate(521 478)">
          <path fill="#0A162F" stroke="#65D5FF" stroke-width="2" d="M144 1c8.008 0 15.258 3.246 20.506 8.494 5.139 5.139 8.358 12.197 8.49 20.006l.004.5v31c0 8.008-3.246 15.258-8.494 20.506C159.258 86.754 152.008 90 144 90c-8.008 0-15.258-3.246-20.506-8.494-5.139-5.139-8.358-12.197-8.49-20.006L115 61V30c0-8.008 3.246-15.258 8.494-20.506C128.742 4.246 135.992 1 144 1zm0 13c-4.378 0-8.346 1.758-11.236 4.648-2.867 2.868-4.676 6.852-4.764 11.342h0V64l.005.413c.108 4.254 1.876 8.096 4.681 10.9C135.582 78.21 139.582 80 144 80c4.378 0 8.346-1.758 11.236-4.648 2.867-2.868 4.676-6.852 4.764-11.342h0V30l-.005-.413c-.108-4.254-1.876-8.096-4.681-10.9C152.418 15.79 148.418 14 144 14z"/>
          <path fill="#0A162F" stroke="#65D5FF" stroke-width="2" d="M87 56H201V145H87z"/>
          <circle cx="144" cy="92" r="7" fill="#0A68FF"/>
          <path fill="#0A68FF" d="M140.733 95L147.267 95 151 115 137 115z"/>
          <path fill="#0A162F" stroke="#65D5FF" stroke-width="2" d="M61.5 68.05L122 87.31v39.112c0 18.785-5.236 36.784-14.64 52.243-9.403 15.458-22.974 28.375-39.644 36.995h0l-6.216 3.214-6.216-3.214c-16.67-8.62-30.241-21.537-39.645-36.995C6.236 163.206 1 145.207 1 126.422h0V87.31l60.5-19.26z"/>
          <path stroke="#FAE100" stroke-width="7" d="M36 139.871L53.087 157 88 122"/>
      </g>
      <g>
          <path fill="#0A162F" stroke="#65D5FF" stroke-width="2" d="M64.866 1.001c-11.152.038-15.377 1.224-19.6 3.482-4.218 2.256-7.527 5.565-9.783 9.783-2.258 4.222-3.443 8.446-3.482 19.596h0v16.272c.038 11.152 1.224 15.377 3.482 19.6 2.256 4.218 5.565 7.527 9.783 9.783C49.559 81.813 53.855 83 65.429 83h112.142c11.574 0 15.87-1.187 20.163-3.483 4.218-2.256 7.527-5.565 9.783-9.783 1.91-3.572 3.055-7.144 3.384-14.955h0l.098-4.653.001-.555h0V29.19l-.001-.53v-6.885c.014-4.982.557-14.42 7.812-20.677-5.958.38-11.068 1.855-15.323 4.446-.194.118-.386.239-.577.361-.177-.14-.356-.277-.537-.41-.783-.578-1.615-1.103-2.494-1.573-3.545-1.896-7.072-2.887-16.54-2.922h0z" transform="translate(-218 -702) translate(217 591) translate(1 111) translate(1 1) translate(47 169)"/>
          <path fill="#0A68FF" d="M55 29H186V35H55zM55 49H132V55H55z" transform="translate(-218 -702) translate(217 591) translate(1 111) translate(1 1) translate(47 169)"/>
          <path fill="#0A162F" stroke="#65D5FF" stroke-width="2" d="M156.57 71c11.575 0 15.87 1.187 20.164 3.483 4.218 2.256 7.527 5.565 9.783 9.783 2.258 4.222 3.443 8.446 3.482 19.596h0L190 119.57c0 11.574-1.187 15.87-3.483 20.163-2.256 4.218-5.565 7.527-9.783 9.783-4.222 2.258-8.446 3.443-19.596 3.482h0H43.866c-11.152-.038-15.377-1.224-19.6-3.482-4.218-2.256-7.527-5.565-9.783-9.783-1.91-3.57-3.054-7.141-3.384-14.946h0l-.098-33.012c-.014-4.982-.557-14.42-7.812-20.677 5.958.38 11.068 1.855 15.323 4.446.194.118.386.239.577.361.177-.14.356-.277.537-.41.783-.578 1.615-1.103 2.494-1.573 3.545-1.896 7.072-2.887 16.54-2.922h0z" transform="translate(-218 -702) translate(217 591) translate(1 111) translate(1 1) translate(47 169)"/>
          <path fill="#FAE100" d="M36 99H167V105H36zM36 119H139V125H36z" transform="translate(-218 -702) translate(217 591) translate(1 111) translate(1 1) translate(47 169)"/>
      </g>
      <g>
          <g transform="translate(-218 -702) translate(217 591) translate(1 111) translate(1 1) translate(548 154)">
              <path fill="#0A162F" stroke="#65D5FF" stroke-width="2" d="M1 1H149V118H1z"/>
              <path fill="#0A68FF" d="M22 48H88V54H22zM22 68H70V74H22z"/>
              <path fill="#65D5FF" d="M0 26H150V28H0z"/>
              <circle cx="14" cy="14" r="3" fill="#65D5FF"/>
              <circle cx="25" cy="14" r="3" fill="#65D5FF"/>
              <circle cx="35" cy="14" r="3" fill="#65D5FF"/>
          </g>
          <g fill="#0A162F" stroke="#65D5FF" stroke-width="2" transform="translate(-218 -702) translate(217 591) translate(1 111) translate(1 1) translate(548 154) rotate(-45 150.774 -17.617)">
              <path d="M51.75 1c14.014 0 26.702 5.68 35.886 14.864C96.82 25.048 102.5 37.736 102.5 51.75c0 12.65-4.629 24.22-12.285 33.107-7.943 9.22-19.143 15.553-31.814 17.211h0L58.4 152.55c0 1.836-.744 3.499-1.948 4.702-1.203 1.204-2.866 1.948-4.702 1.948-1.836 0-3.499-.744-4.702-1.948-1.204-1.203-1.948-2.866-1.948-4.702h0v-50.482c-12.671-1.658-23.872-7.99-31.815-17.21C5.63 75.97 1 64.4 1 51.75c0-14.014 5.68-26.702 14.864-35.886C25.048 6.68 37.736 1 51.75 1z"/>
              <circle cx="51.75" cy="51.75" r="38.15"/>
          </g>
          <path fill="#FAE100" fill-rule="nonzero" d="M132.356 108.852v-1.848c0-1.428.462-2.688 1.344-3.654l4.032-4.368c1.344-1.512 2.52-3.528 2.52-5.88 0-5.334-3.528-9.03-10.038-9.03-6.132 0-10.206 4.032-10.5 9.618h4.788c.378-3.486 2.352-5.25 5.712-5.25 2.982 0 5.25 1.974 5.25 4.41 0 1.344-.588 2.73-1.974 4.2l-3.528 3.822c-1.512 1.638-2.394 3.654-2.394 6.048v1.932h4.788zm.588 9.618v-5.88h-5.88v5.88h5.88z" transform="translate(-218 -702) translate(217 591) translate(1 111) translate(1 1) translate(548 154)"/>
      </g>
  </g>
</svg>
